<svg width="360" height="48" viewBox="0 0 360 48" fill="none" xmlns="http://www.w3.org/2000/svg">
  <path d="M10 24C60 24 70 8 120 8C150 8 160 24 180 24C200 24 210 8 240 8C290 8 300 24 350 24" stroke="#FF5FA2" stroke-width="3" stroke-linecap="round"/>
  <path d="M20 30C70 30 78 16 120 16C150 16 162 30 180 30C198 30 210 16 240 16C282 16 290 30 340 30" stroke="#48C9D9" stroke-width="2.5" stroke-linecap="round"/>
  <path d="M45 18C78 18 90 4 120 4" stroke="#8A63D2" stroke-width="2" stroke-linecap="round"/>
  <path d="M240 4C270 4 282 18 315 18" stroke="#8A63D2" stroke-width="2" stroke-linecap="round"/>
  <circle cx="180" cy="24" r="6" fill="#F7C65B"/>
  <circle cx="150" cy="24" r="3" fill="#FF5FA2"/>
  <circle cx="210" cy="24" r="3" fill="#48C9D9"/>
</svg>
